<svg width="800" height="800" viewBox="0 0 800 800" fill="none" xmlns="http://www.w3.org/2000/svg">
<path d="M794 389.28V82.2399C794 77.5199 788 75.36 785.04 79.12L449.68 498.32C449.086 499.058 448.714 499.949 448.605 500.889C448.497 501.83 448.657 502.782 449.067 503.636C449.477 504.49 450.12 505.21 450.923 505.713C451.725 506.216 452.653 506.482 453.6 506.48H695.92C702.48 506.48 708.64 503.52 712.72 498.4L789.28 402.72C792.32 398.88 794 394.16 794 389.28ZM9.36002 402.72L261.28 717.6C265.36 722.72 271.52 725.68 278.08 725.68H520.4C524.64 725.68 526.96 720.8 524.32 717.52L13.6 79.12C10.64 75.44 4.64001 77.5199 4.64001 82.2399V389.28C4.64001 394.16 6.32001 398.88 9.36002 402.72Z" fill="#FF4656"/>
</svg>
